<svg xmlns="http://www.w3.org/2000/svg" xml:space="preserve" viewBox="0 0 800 320"><path fill="#ffffff" d="M187.81 68.97c38.88 0 66.31 25.46 66.31 65.18v99.65h-43.65v-89.7c0-20.74-11.61-33.71-30.16-33.71-16.57 0-31.65 10.69-31.65 33.71v89.7h-43.41v-89.7c0-20.84-11.84-33.7-30.74-33.7-16.03 0-31.07 10.39-31.07 33.7v89.7H0V72.26h43.42v14.89c13.41-14.26 30.47-18.19 44.94-18.19 22.13 0 38.78 7.71 49.34 25.95 9.35-15.36 28.88-25.94 50.11-25.94zM441.05 153.31c0 47.79-36.72 83.78-84.2 83.78-47.69 0-84.08-35.99-84.08-83.78 0-48.02 36.38-84.35 84.08-84.35 47.49.01 84.2 36.33 84.2 84.35zm-125.76 0c0 24.04 17.86 42.35 41.57 42.35 23.62 0 41.69-18.32 41.69-42.35 0-24.6-18.07-42.92-41.69-42.92-23.72.01-41.57 18.33-41.57 42.92zM546.18 68.97c41.58 0 66.89 27.79 66.89 73.33v91.51h-43.42v-86.07c0-22.6-13.6-37.33-34.38-37.33-20.99 0-34.66 14.74-34.66 37.33v86.07H457.2V17.47L500.61 0v89.75c11.65-13.44 27.58-20.78 45.57-20.78zM800 153.31c0 47.79-36.72 83.78-84.19 83.78-47.7 0-84.09-35.99-84.09-83.78 0-48.02 36.39-84.35 84.09-84.35 47.47.01 84.19 36.33 84.19 84.35zm-125.77 0c0 24.04 17.87 42.35 41.58 42.35 23.61 0 41.67-18.32 41.67-42.35 0-24.6-18.06-42.92-41.67-42.92-23.71.01-41.58 18.33-41.58 42.92z"/><path fill="#00a64f" d="M0 277.11h254.12V320H0z"/></svg>