<?xml version="1.0" standalone="no"?>
<!DOCTYPE svg PUBLIC "-//W3C//DTD SVG 20010904//EN"
 "http://www.w3.org/TR/2001/REC-SVG-20010904/DTD/svg10.dtd">
<svg version="1.0" xmlns="http://www.w3.org/2000/svg"
 width="700.000000pt" height="700.000000pt" viewBox="0 0 700.000000 700.000000"
 preserveAspectRatio="xMidYMid meet">
<metadata>
Created by potrace 1.14, written by Peter Selinger 2001-2017
</metadata>
<g transform="translate(0.000000,700.000000) scale(0.100000,-0.100000)"
fill="#000000" stroke="none">
<path d="M2618 5945 c-2 -2 -28 -5 -58 -8 -202 -22 -429 -123 -595 -265 l-70
-60 -5 137 -5 137 -417 0 -418 0 0 -1577 0 -1578 419 0 420 -1 1 888 c1 488 3
910 4 937 18 293 176 498 434 565 72 18 238 21 305 6 137 -32 267 -123 341
-239 33 -52 77 -164 91 -232 3 -16 8 -452 10 -968 3 -517 7 -942 9 -946 3 -4
191 -7 418 -7 l413 1 2 775 c2 1133 1 1110 41 1237 21 67 79 160 137 219 114
116 243 168 415 169 161 0 240 -21 346 -91 121 -80 207 -226 240 -404 5 -31
13 -843 14 -1452 l0 -458 421 0 421 1 -4 1057 c-2 768 -6 1077 -15 1129 -91
543 -437 897 -983 1009 -120 25 -414 25 -525 0 -89 -20 -226 -67 -296 -102
-143 -71 -301 -204 -388 -326 -19 -27 -35 -47 -36 -45 -1 1 -20 28 -42 60 -96
139 -218 249 -353 317 -75 38 -171 74 -221 84 -13 2 -31 7 -39 10 -36 12 -116
19 -267 21 -90 1 -164 1 -165 0z"/>
<path d="M1050 1470 l0 -420 2450 0 2450 0 0 420 0 420 -2450 0 -2450 0 0
-420z"/>
</g>
</svg>
